<?xml version='1.0' encoding='UTF-8' standalone='no'?>
<svg
  xmlns:dc="http://purl.org/dc/elements/1.1/"
  xmlns:cc="http://creativecommons.org/ns#"
  xmlns:rdf="http://www.w3.org/1999/02/22-rdf-syntax-ns#"
  xmlns:svg="http://www.w3.org/2000/svg"
  xmlns="http://www.w3.org/2000/svg"
  viewBox="0 0 516.72932 597.30171"
  id="svg2"
  gorn="0"
  height="0.59730154in"
  width="0.51672918in"
  version="1.1">
  <metadata
    id="metadata43">
    <rdf:RDF>
      <cc:Work
        rdf:about="">
        <dc:title/>
        <dc:format>image/svg+xml</dc:format>
        <dc:type
          rdf:resource="http://purl.org/dc/dcmitype/StillImage"
        />
      </cc:Work>
    </rdf:RDF>
  </metadata>
  <defs
    id="defs41">
    <defs
      id="defs4">
      <filter
        width="1.2927426"
        y="-0.17207448"
        height="1.344149"
        x="-0.14637129"
        id="filter3779"
        color-interpolation-filters="sRGB">
        <feGaussianBlur
          stdDeviation="1.2405681"
          id="feGaussianBlur3781"
        />
      </filter>
      <filter
        width="1.2927426"
        y="-0.17207448"
        height="1.344149"
        x="-0.14637129"
        id="filter3779-1"
        color-interpolation-filters="sRGB">
        <feGaussianBlur
          stdDeviation="1.2405681"
          id="feGaussianBlur3781-7"
        />
      </filter>
      <filter
        width="1.0623688"
        y="-0.1595908"
        height="1.3191816"
        x="-0.031184409"
        id="filter3856"
        color-interpolation-filters="sRGB">
        <feGaussianBlur
          stdDeviation="0.26527165"
          id="feGaussianBlur3858"
        />
      </filter>
      <filter
        id="filter3870"
        color-interpolation-filters="sRGB">
        <feGaussianBlur
          stdDeviation="0.3375"
          id="feGaussianBlur3872"
        />
      </filter>
    </defs>
  </defs>
  <desc
    id="desc2">
    <referenceFile>prefix0000_683b62db06dd54dd80bad91d5979a5b7_2_breadboard.svg</referenceFile>
  </desc>
  <g
    id="breadboard">
    <path
      stroke-miterlimit="4"
      d="M 400.00112,467.54661 V 587.05679"
      gorn="0.0.2.0.0.0"
      id="path3767"
      fill="none"
      stroke="#646464"
      stroke-width="20"
      stroke-linecap="round"
      stroke-linejoin="miter"
      stroke-dasharray="none"
      stroke-opacity="1"
    />
    <path
      stroke-miterlimit="4"
      d="M 100.00003,469.98002 V 587.1593"
      gorn="0.0.2.0.0.1"
      id="path3769"
      fill="none"
      stroke="#646464"
      stroke-width="20"
      stroke-linecap="round"
      stroke-linejoin="miter"
      stroke-dasharray="none"
      stroke-opacity="1"
    />
    <path
      id="path2989"
      gorn="0.0.2.0.0.2.0"
      d="m 515.871,258.38485 a 257.50634,257.4863 0 1 1 -515.0126757,0 257.50634,257.4863 0 1 1 515.0126757,0 z"
      fill="#333333"
      fill-opacity="1"
      stroke="#fffeff"
      stroke-width="1.71664214"
      stroke-opacity="1"
    />
    <path
      stroke-miterlimit="4"
      id="path3777"
      gorn="0.0.2.0.0.3.0"
      d="m 345.578,31.693576 c 3.6867,1.319034 -2.59054,-3.725868 0,0 z m -5.39876,7.732041 c -1.70922,-0.825912 -10.78376,-0.08822 -8.27035,2.60168 4.88407,-1.786574 15.34741,-0.401378 20.22474,2.037104 -3.79208,-2.30649 -42.29814,-24.411725 -42.29814,-24.411725 z m 11.95439,4.639224 c -9.51181,-0.08822 4.79399,11.382928 9.72104,16.556183 4.56433,6.150237 15.52647,8.185797 20.79566,12.702734 3.25523,10.759799 11.49466,10.345849 15.74932,18.467139 4.87986,7.9184 20.25022,18.748333 24.44114,27.573683 3.75927,8.81775 11.93082,19.00437 16.67051,26.42964 5.65396,7.33629 6.34351,12.76647 10.53005,22.47452 9.92662,13.06244 28.62071,57.1934 31.24629,66.28572 1.62697,7.87649 15.70879,71.39843 17.97503,60.88508 2.03647,-9.65071 2.92743,-88.7201 1.74365,-97.97131 -1.75783,-9.43426 -16.90133,-45.93154 -20.56557,-53.37182 C 475.84304,135.82991 458.924,116.43 454.55921,107.91549 449.58773,97.438639 435.94176,90.512441 429.69616,82.124854 423.20297,73.687313 412.06,69.379667 405.32254,61.457523 399.37846,55.8669 388.50572,51.308723 382.13156,47.192172 c -6.88894,-4.07134 -11.19173,-8.276879 -18.2061,-11.69609 -2.25965,-0.716746 -9.65767,7.663233 -11.79183,8.568759 z"
      fill="#ffffff"
      stroke="#000000"
      stroke-width="3.69078016"
      stroke-linecap="round"
      stroke-linejoin="round"
      stroke-dasharray="none"
      stroke-opacity="1"
    />
    <path
      id="path2991"
      gorn="0.0.2.0.0.4.0"
      d="m 328.63986,258.14303 a 69.204829,69.199443 0 1 1 -138.40965,0 69.204829,69.199443 0 1 1 138.40965,0 z"
      opacity="0.54867255"
      fill="#000000"
      fill-opacity="1"
      stroke="#757f7d"
      stroke-width="9.2269516"
      stroke-opacity="1"
    />
    <path
      id="path3777-4"
      gorn="0.0.2.0.0.5.0"
      d="m 103.42354,438.84971 c -2.78411,-1.03321 1.95631,2.91848 0,0 z m 4.07701,-6.05618 c 1.29076,0.64728 4.22779,-1.28176 2.32972,-3.39142 -3.68832,1.39931 -7.67414,1.66792 -11.357396,-0.24149 2.863696,1.80665 5.872436,4.52851 9.027676,3.6338 z m -9.027676,-3.63368 c -4.781058,0.0662 -8.18879,-6.20836 -11.90959,-10.26039 -3.446872,-4.81732 -7.156723,-9.119 -11.13589,-12.65697 -4.416223,-3.68982 -8.680501,-8.10354 -11.893514,-14.46461 -3.685158,-6.20218 -6.155502,-14.00799 -9.320385,-20.92084 -2.838908,-6.90657 -6.399329,-12.85469 -9.978622,-18.67058 -4.26973,-5.74633 -8.706315,-11.35338 -11.867889,-18.95718 -2.927857,-6.17008 -5.297603,-12.98491 -7.280383,-20.10662 -1.228651,-6.16942 -7.294412,-11.25082 -9.005825,-3.01617 -1.537897,7.55914 1.705124,14.6654 2.599085,21.9116 1.327477,7.38943 4.931652,12.28624 7.698943,18.11395 3.472079,6.47476 5.153999,14.90149 8.450185,21.57054 3.754349,8.20619 8.838317,14.30792 13.554841,20.87773 4.903507,6.60884 10.055224,12.69015 15.1432,18.89542 4.488817,4.37888 9.43645,7.27221 14.250076,10.49659 5.202365,3.18886 10.409623,6.48302 15.706713,9.16123 1.706429,0.56127 3.3774,-1.26446 4.989055,-1.9737 z"
      fill="#ffffff"
      stroke="#000000"
      stroke-width="6.00998068"
      stroke-linecap="butt"
      stroke-linejoin="miter"
      stroke-opacity="1"
    />
    <rect
      stroke-miterlimit="4"
      id="rect3842"
      gorn="0.0.2.0.0.6.0"
      x="158.18608"
      height="41.829983"
      y="377.04156"
      width="206.10564"
      fill="#000000"
      fill-opacity="1"
      stroke="#000000"
      stroke-width="18.56462669"
      stroke-linecap="round"
      stroke-linejoin="round"
      stroke-dasharray="none"
      stroke-opacity="1"
    />
    <rect
      id="connector0pin"
      gorn="0.0.4"
      x="95.337547"
      height="10.000003"
      y="582.30176"
      width="10.000003"
      fill="none"
      stroke-width="10.4162035"
    />
    <rect
      id="connector1pin"
      gorn="0.0.3"
      x="395.00012"
      height="9.9991655"
      y="582.30255"
      width="10.000003"
      fill="none"
      stroke-width="2.88187146"
    />
  </g>
</svg>
