<?xml version='1.0' encoding='UTF-8' standalone='no'?>
<!-- Created with Fritzing (http://www.fritzing.org/) -->
<svg xmlns="http://www.w3.org/2000/svg" width="0.406in" x="0in" y="0in" version="1.2"  viewBox="0 0 10.3124 10.2616" height="0.404in" baseProfile="tiny">
    <desc >
        <referenceFile >sparkfun-analogic_dil-08_pcb.svg</referenceFile>
    </desc>
    <g gorn="0.1"  id="copper1">
        <circle fill="none" cx="1.3462" gorn="0.1.0"  cy="8.9408" connectorname="1" stroke="#F7BD13" id="connector0pad" r="0.5334" stroke-width="0.254"/>
        <path fill="#F7BD13"  stroke="none" stroke-width="0" d="m1.3462,7.62a0.6604,0.6604 0 0 1 0.6604,0.6604l0,1.3208a0.6604,0.6604 0 0 1 -0.6604,0.6604l-0,0a0.6604,0.6604 0 0 1 -0.6604,-0.6604l0,-1.3208a0.6604,0.6604 0 0 1 0.6604,-0.6604l0,0zM0.9398,8.9408a0.4064,0.4064 0 1 0 0.8128,0 0.4064,0.4064 0 1 0 -0.8128,0z&#xd;&#xa;"/>
        <circle fill="none" cx="3.8862" gorn="0.1.2"  cy="8.9408" connectorname="2" stroke="#F7BD13" id="connector1pad" r="0.5334" stroke-width="0.254"/>
        <path fill="#F7BD13"  stroke="none" stroke-width="0" d="m3.8862,7.62a0.6604,0.6604 0 0 1 0.6604,0.6604l0,1.3208a0.6604,0.6604 0 0 1 -0.6604,0.6604l-0,0a0.6604,0.6604 0 0 1 -0.6604,-0.6604l0,-1.3208a0.6604,0.6604 0 0 1 0.6604,-0.6604l0,0zM3.4798,8.9408a0.4064,0.4064 0 1 0 0.8128,0 0.4064,0.4064 0 1 0 -0.8128,0z&#xd;&#xa;"/>
        <circle fill="none" cx="3.8862" gorn="0.1.4"  cy="1.3208" connectorname="7" stroke="#F7BD13" id="connector6pad" r="0.5334" stroke-width="0.254"/>
        <path fill="#F7BD13"  stroke="none" stroke-width="0" d="m3.8862,0a0.6604,0.6604 0 0 1 0.6604,0.6604l0,1.3208a0.6604,0.6604 0 0 1 -0.6604,0.6604l-0,0a0.6604,0.6604 0 0 1 -0.6604,-0.6604l0,-1.3208a0.6604,0.6604 0 0 1 0.6604,-0.6604l0,0zM3.4798,1.3208a0.4064,0.4064 0 1 0 0.8128,0 0.4064,0.4064 0 1 0 -0.8128,0z&#xd;&#xa;"/>
        <circle fill="none" cx="1.3462" gorn="0.1.6"  cy="1.3208" connectorname="8" stroke="#F7BD13" id="connector7pad" r="0.5334" stroke-width="0.254"/>
        <path fill="#F7BD13"  stroke="none" stroke-width="0" d="m1.3462,0a0.6604,0.6604 0 0 1 0.6604,0.6604l0,1.3208a0.6604,0.6604 0 0 1 -0.6604,0.6604l-0,0a0.6604,0.6604 0 0 1 -0.6604,-0.6604l0,-1.3208a0.6604,0.6604 0 0 1 0.6604,-0.6604l0,0zM0.9398,1.3208a0.4064,0.4064 0 1 0 0.8128,0 0.4064,0.4064 0 1 0 -0.8128,0z&#xd;&#xa;"/>
        <circle fill="none" cx="6.4262" gorn="0.1.8"  cy="8.9408" connectorname="3" stroke="#F7BD13" id="connector2pad" r="0.5334" stroke-width="0.254"/>
        <path fill="#F7BD13"  stroke="none" stroke-width="0" d="m6.4262,7.62a0.6604,0.6604 0 0 1 0.6604,0.6604l0,1.3208a0.6604,0.6604 0 0 1 -0.6604,0.6604l-0,0a0.6604,0.6604 0 0 1 -0.6604,-0.6604l0,-1.3208a0.6604,0.6604 0 0 1 0.6604,-0.6604l0,0zM6.0198,8.9408a0.4064,0.4064 0 1 0 0.8128,0 0.4064,0.4064 0 1 0 -0.8128,0z&#xd;&#xa;"/>
        <circle fill="none" cx="8.9662" gorn="0.1.10"  cy="8.9408" connectorname="4" stroke="#F7BD13" id="connector3pad" r="0.5334" stroke-width="0.254"/>
        <path fill="#F7BD13"  stroke="none" stroke-width="0" d="m8.9662,7.62a0.6604,0.6604 0 0 1 0.6604,0.6604l0,1.3208a0.6604,0.6604 0 0 1 -0.6604,0.6604l-0,0a0.6604,0.6604 0 0 1 -0.6604,-0.6604l0,-1.3208a0.6604,0.6604 0 0 1 0.6604,-0.6604l0,0zM8.5598,8.9408a0.4064,0.4064 0 1 0 0.8128,0 0.4064,0.4064 0 1 0 -0.8128,0z&#xd;&#xa;"/>
        <circle fill="none" cx="6.4262" gorn="0.1.12"  cy="1.3208" connectorname="6" stroke="#F7BD13" id="connector5pad" r="0.5334" stroke-width="0.254"/>
        <path fill="#F7BD13"  stroke="none" stroke-width="0" d="m6.4262,0a0.6604,0.6604 0 0 1 0.6604,0.6604l0,1.3208a0.6604,0.6604 0 0 1 -0.6604,0.6604l-0,0a0.6604,0.6604 0 0 1 -0.6604,-0.6604l0,-1.3208a0.6604,0.6604 0 0 1 0.6604,-0.6604l0,0zM6.0198,1.3208a0.4064,0.4064 0 1 0 0.8128,0 0.4064,0.4064 0 1 0 -0.8128,0z&#xd;&#xa;"/>
        <circle fill="none" cx="8.9662" gorn="0.1.14"  cy="1.3208" connectorname="5" stroke="#F7BD13" id="connector4pad" r="0.5334" stroke-width="0.254"/>
        <path fill="#F7BD13"  stroke="none" stroke-width="0" d="m8.9662,0a0.6604,0.6604 0 0 1 0.6604,0.6604l0,1.3208a0.6604,0.6604 0 0 1 -0.6604,0.6604l-0,0a0.6604,0.6604 0 0 1 -0.6604,-0.6604l0,-1.3208a0.6604,0.6604 0 0 1 0.6604,-0.6604l0,0zM8.5598,1.3208a0.4064,0.4064 0 1 0 0.8128,0 0.4064,0.4064 0 1 0 -0.8128,0z&#xd;&#xa;"/>
        <g gorn="0.1.16"  id="copper0">
            <circle fill="none" cx="1.3462" gorn="0.1.16.0"  cy="8.9408" connectorname="1" stroke="#F7BD13" id="connector0pad" r="0.5334" stroke-width="0.254"/>
            <path fill="#F7BD13"  stroke="none" stroke-width="0" d="m1.3462,7.62a0.6604,0.6604 0 0 1 0.6604,0.6604l0,1.3208a0.6604,0.6604 0 0 1 -0.6604,0.6604l-0,0a0.6604,0.6604 0 0 1 -0.6604,-0.6604l0,-1.3208a0.6604,0.6604 0 0 1 0.6604,-0.6604l0,0zM0.9398,8.9408a0.4064,0.4064 0 1 0 0.8128,0 0.4064,0.4064 0 1 0 -0.8128,0z&#xd;&#xa;"/>
            <circle fill="none" cx="3.8862" gorn="0.1.16.2"  cy="8.9408" connectorname="2" stroke="#F7BD13" id="connector1pad" r="0.5334" stroke-width="0.254"/>
            <path fill="#F7BD13"  stroke="none" stroke-width="0" d="m3.8862,7.62a0.6604,0.6604 0 0 1 0.6604,0.6604l0,1.3208a0.6604,0.6604 0 0 1 -0.6604,0.6604l-0,0a0.6604,0.6604 0 0 1 -0.6604,-0.6604l0,-1.3208a0.6604,0.6604 0 0 1 0.6604,-0.6604l0,0zM3.4798,8.9408a0.4064,0.4064 0 1 0 0.8128,0 0.4064,0.4064 0 1 0 -0.8128,0z&#xd;&#xa;"/>
            <circle fill="none" cx="3.8862" gorn="0.1.16.4"  cy="1.3208" connectorname="7" stroke="#F7BD13" id="connector6pad" r="0.5334" stroke-width="0.254"/>
            <path fill="#F7BD13"  stroke="none" stroke-width="0" d="m3.8862,0a0.6604,0.6604 0 0 1 0.6604,0.6604l0,1.3208a0.6604,0.6604 0 0 1 -0.6604,0.6604l-0,0a0.6604,0.6604 0 0 1 -0.6604,-0.6604l0,-1.3208a0.6604,0.6604 0 0 1 0.6604,-0.6604l0,0zM3.4798,1.3208a0.4064,0.4064 0 1 0 0.8128,0 0.4064,0.4064 0 1 0 -0.8128,0z&#xd;&#xa;"/>
            <circle fill="none" cx="1.3462" gorn="0.1.16.6"  cy="1.3208" connectorname="8" stroke="#F7BD13" id="connector7pad" r="0.5334" stroke-width="0.254"/>
            <path fill="#F7BD13"  stroke="none" stroke-width="0" d="m1.3462,0a0.6604,0.6604 0 0 1 0.6604,0.6604l0,1.3208a0.6604,0.6604 0 0 1 -0.6604,0.6604l-0,0a0.6604,0.6604 0 0 1 -0.6604,-0.6604l0,-1.3208a0.6604,0.6604 0 0 1 0.6604,-0.6604l0,0zM0.9398,1.3208a0.4064,0.4064 0 1 0 0.8128,0 0.4064,0.4064 0 1 0 -0.8128,0z&#xd;&#xa;"/>
            <circle fill="none" cx="6.4262" gorn="0.1.16.8"  cy="8.9408" connectorname="3" stroke="#F7BD13" id="connector2pad" r="0.5334" stroke-width="0.254"/>
            <path fill="#F7BD13"  stroke="none" stroke-width="0" d="m6.4262,7.62a0.6604,0.6604 0 0 1 0.6604,0.6604l0,1.3208a0.6604,0.6604 0 0 1 -0.6604,0.6604l-0,0a0.6604,0.6604 0 0 1 -0.6604,-0.6604l0,-1.3208a0.6604,0.6604 0 0 1 0.6604,-0.6604l0,0zM6.0198,8.9408a0.4064,0.4064 0 1 0 0.8128,0 0.4064,0.4064 0 1 0 -0.8128,0z&#xd;&#xa;"/>
            <circle fill="none" cx="8.9662" gorn="0.1.16.10"  cy="8.9408" connectorname="4" stroke="#F7BD13" id="connector3pad" r="0.5334" stroke-width="0.254"/>
            <path fill="#F7BD13"  stroke="none" stroke-width="0" d="m8.9662,7.62a0.6604,0.6604 0 0 1 0.6604,0.6604l0,1.3208a0.6604,0.6604 0 0 1 -0.6604,0.6604l-0,0a0.6604,0.6604 0 0 1 -0.6604,-0.6604l0,-1.3208a0.6604,0.6604 0 0 1 0.6604,-0.6604l0,0zM8.5598,8.9408a0.4064,0.4064 0 1 0 0.8128,0 0.4064,0.4064 0 1 0 -0.8128,0z&#xd;&#xa;"/>
            <circle fill="none" cx="6.4262" gorn="0.1.16.12"  cy="1.3208" connectorname="6" stroke="#F7BD13" id="connector5pad" r="0.5334" stroke-width="0.254"/>
            <path fill="#F7BD13"  stroke="none" stroke-width="0" d="m6.4262,0a0.6604,0.6604 0 0 1 0.6604,0.6604l0,1.3208a0.6604,0.6604 0 0 1 -0.6604,0.6604l-0,0a0.6604,0.6604 0 0 1 -0.6604,-0.6604l0,-1.3208a0.6604,0.6604 0 0 1 0.6604,-0.6604l0,0zM6.0198,1.3208a0.4064,0.4064 0 1 0 0.8128,0 0.4064,0.4064 0 1 0 -0.8128,0z&#xd;&#xa;"/>
            <circle fill="none" cx="8.9662" gorn="0.1.16.14"  cy="1.3208" connectorname="5" stroke="#F7BD13" id="connector4pad" r="0.5334" stroke-width="0.254"/>
            <path fill="#F7BD13"  stroke="none" stroke-width="0" d="m8.9662,0a0.6604,0.6604 0 0 1 0.6604,0.6604l0,1.3208a0.6604,0.6604 0 0 1 -0.6604,0.6604l-0,0a0.6604,0.6604 0 0 1 -0.6604,-0.6604l0,-1.3208a0.6604,0.6604 0 0 1 0.6604,-0.6604l0,0zM8.5598,1.3208a0.4064,0.4064 0 1 0 0.8128,0 0.4064,0.4064 0 1 0 -0.8128,0z&#xd;&#xa;"/>
        </g>
    </g>
    <g gorn="0.2"  id="silkscreen">
        <line class="other"  stroke="#f0f0f0" stroke-linecap="round" y1="2.2098" y2="2.2098" x1="10.2362" stroke-width="0.1524" x2="0.0762"/>
        <line class="other"  stroke="#f0f0f0" stroke-linecap="round" y1="8.0518" y2="8.0518" x1="0.0762" stroke-width="0.1524" x2="10.2362"/>
        <line class="other"  stroke="#f0f0f0" stroke-linecap="round" y1="2.2098" y2="8.0518" x1="10.2362" stroke-width="0.1524" x2="10.2362"/>
        <line class="other"  stroke="#f0f0f0" stroke-linecap="round" y1="2.2098" y2="4.1148" x1="0.0762" stroke-width="0.1524" x2="0.0762"/>
        <line class="other"  stroke="#f0f0f0" stroke-linecap="round" y1="8.0518" y2="6.1468" x1="0.0762" stroke-width="0.1524" x2="0.0762"/>
        <path class="other" fill="none"  stroke="#f0f0f0" stroke-width="0.1524" d="M0.0762,4.1148 A1.016,1.016 0 1 1 0.0762,6.1468"/>
    </g>
</svg>
